<?xml version="1.0" standalone="no"?>
<!DOCTYPE svg PUBLIC "-//W3C//DTD SVG 20010904//EN"
 "http://www.w3.org/TR/2001/REC-SVG-20010904/DTD/svg10.dtd">
<svg version="1.0" xmlns="http://www.w3.org/2000/svg"
 width="512" height="512" viewBox="0 0 512 512"
 preserveAspectRatio="xMidYMid meet">

<g transform="translate(0.000000,512.000000) scale(0.100000,-0.100000)"
fill="#000000" stroke="none">
<path d="M2089 4481 c-59 -59 -23 -151 59 -151 35 0 44 -6 95 -64 43 -49 57
-72 57 -96 0 -59 71 -98 135 -74 21 8 45 56 45 89 0 39 -50 85 -92 85 -28 0
-44 10 -91 58 -46 47 -57 64 -57 91 0 44 -46 91 -90 91 -22 0 -41 -9 -61 -29z
m90 -45 c18 -22 -4 -58 -32 -54 -37 5 -36 68 1 68 11 0 25 -6 31 -14z m239
-257 c3 -28 -16 -43 -42 -33 -38 14 -27 67 13 62 20 -2 27 -9 29 -29z"/>
<path d="M2574 4500 c-47 -19 -67 -77 -42 -123 17 -33 39 -46 78 -47 31 0 46
-11 121 -87 46 -49 93 -98 104 -111 l19 -23 -114 -114 -115 -115 -133 0 c-128
0 -135 1 -164 25 -40 34 -82 33 -119 -4 -60 -60 -24 -151 59 -151 24 0 49 8
65 20 23 18 40 20 173 20 l148 0 160 160 161 160 -137 137 c-127 127 -138 141
-138 175 0 28 -7 42 -31 62 -31 27 -58 31 -95 16z m67 -66 c17 -21 0 -49 -32
-49 -24 0 -36 23 -25 51 7 19 40 18 57 -2z m-342 -578 c15 -18 -2 -56 -24 -56
-26 0 -46 29 -35 51 13 22 43 25 59 5z"/>
<path d="M1741 4364 c-41 -34 -44 -92 -6 -130 l25 -25 0 -380 0 -380 153 -149
152 -149 275 -1 275 0 223 -223 222 -222 0 -547 0 -547 -25 -25 c-54 -54 -11
-156 65 -156 40 0 90 47 90 85 0 30 -17 66 -36 78 -12 7 -14 109 -14 575 l0
567 -248 248 -247 247 -269 0 -269 0 -133 126 -134 126 0 369 c0 299 3 370 14
376 43 26 47 94 7 134 -37 37 -79 38 -120 3z m87 -63 c6 -40 -39 -56 -58 -20
-9 15 -8 24 1 35 18 22 53 13 57 -15z m1301 -2758 c21 -38 -31 -72 -58 -39 -9
11 -10 20 -1 35 13 25 45 27 59 4z"/>
<path d="M3129 4361 c-37 -37 -38 -79 -4 -119 23 -27 25 -39 25 -119 l0 -88
-218 -218 -217 -217 -182 0 c-142 0 -184 3 -190 14 -25 42 -99 47 -137 10 -35
-35 -35 -82 0 -123 33 -40 80 -42 122 -6 30 25 32 25 224 25 l193 0 243 243
242 242 0 102 c0 96 2 104 25 127 38 38 35 96 -6 130 -41 35 -83 34 -120 -3z
m95 -53 c15 -24 -13 -53 -43 -43 -21 6 -29 43 -14 59 12 12 45 2 57 -16z
m-929 -724 c9 -9 14 -21 12 -27 -6 -18 -33 -31 -51 -24 -19 7 -22 53 -3 60 20
9 25 8 42 -9z"/>
<path d="M3495 4175 c-34 -33 -33 -84 0 -123 25 -29 25 -33 25 -204 l0 -173
-90 -90 -90 -90 0 -381 c0 -343 -2 -383 -17 -395 -9 -8 -22 -29 -30 -46 -11
-28 -11 -38 1 -67 25 -60 93 -75 143 -32 36 31 39 93 5 129 -22 23 -22 25 -22
388 l0 364 90 90 90 90 0 193 c0 192 0 194 25 224 54 64 17 148 -65 148 -30 0
-47 -6 -65 -25z m96 -46 c9 -18 7 -25 -11 -43 l-21 -21 -19 23 c-15 18 -17 28
-10 43 14 25 47 24 61 -2z m-193 -1461 c18 -18 15 -46 -6 -57 -39 -21 -73 36
-34 58 22 13 26 13 40 -1z"/>
<path d="M1194 3980 c-86 -34 -62 -171 29 -174 32 -1 47 -12 107 -71 l70 -69
0 -109 0 -109 125 -120 c105 -100 125 -125 125 -150 0 -69 64 -121 121 -99 95
36 75 170 -26 176 -33 2 -51 16 -151 116 l-114 114 0 110 0 110 -80 80 c-63
62 -80 86 -80 108 0 39 -15 64 -50 82 -32 17 -45 18 -76 5z m61 -85 c0 -35
-31 -47 -51 -20 -18 25 0 57 29 53 17 -2 22 -10 22 -33z m519 -717 c15 -24
-13 -53 -43 -43 -21 6 -29 43 -14 59 12 12 45 2 57 -16z"/>
<path d="M3871 3904 c-41 -34 -44 -92 -6 -130 18 -18 25 -36 25 -62 0 -33 -8
-46 -73 -110 -60 -60 -78 -72 -105 -72 -75 0 -110 -96 -57 -154 52 -56 155
-13 155 66 0 29 12 45 80 113 l80 80 0 62 c0 42 4 65 14 70 43 26 47 94 7 134
-37 37 -79 38 -120 3z m87 -63 c6 -40 -39 -56 -58 -20 -9 15 -8 24 1 35 18 22
53 13 57 -15z m-220 -370 c8 -4 12 -19 10 -32 -4 -34 -53 -40 -63 -8 -5 16 -2
26 11 36 21 15 24 16 42 4z"/>
<path d="M3083 3668 c-27 -13 -54 -67 -47 -94 3 -13 -6 -30 -30 -53 l-36 -35
0 -111 0 -111 34 -33 c26 -25 34 -41 34 -68 0 -90 126 -122 167 -43 19 36 19
54 0 90 -15 29 -73 57 -99 47 -8 -3 -23 5 -35 17 -18 19 -21 35 -21 102 0 71
3 83 23 102 15 14 36 22 59 22 28 0 42 7 62 31 30 35 32 58 11 100 -23 44 -75
60 -122 37z m72 -77 c0 -34 -30 -51 -51 -29 -25 24 -10 60 24 56 21 -2 27 -8
27 -27z m-11 -397 c24 -9 20 -51 -5 -59 -28 -9 -53 16 -44 44 6 21 21 26 49
15z"/>
<path d="M905 3574 c-35 -38 -34 -87 4 -125 21 -20 39 -29 63 -29 30 0 59 -26
328 -295 l295 -295 440 0 441 0 162 -163 162 -163 0 -307 c0 -290 -1 -307 -19
-316 -31 -17 -43 -67 -27 -106 25 -59 93 -74 143 -31 36 31 39 93 5 129 -22
23 -22 26 -22 343 l0 319 -188 188 -187 187 -435 0 -435 0 -288 288 c-260 260
-287 290 -287 320 0 76 -103 113 -155 56z m95 -43 c15 -30 2 -53 -29 -49 -26
3 -38 26 -27 54 8 20 44 17 56 -5z m1858 -1693 c18 -18 15 -46 -6 -57 -39 -21
-73 36 -34 58 22 13 26 13 40 -1z"/>
<path d="M4104 3580 c-31 -12 -54 -49 -54 -85 0 -26 -29 -60 -215 -245 l-215
-215 0 -275 0 -275 -150 -155 -149 -155 -1 -414 0 -413 -25 -30 c-28 -34 -32
-66 -10 -107 16 -33 33 -41 81 -41 76 0 115 98 59 150 l-25 23 0 401 0 401
150 150 150 150 0 275 0 275 205 205 c189 189 207 204 241 206 74 2 111 92 62
148 -25 29 -72 40 -104 26z m65 -67 c12 -23 -4 -53 -29 -53 -25 0 -41 29 -29
52 12 23 45 23 58 1z m-773 -2245 c9 -29 -20 -57 -44 -42 -24 15 -27 45 -7 60
21 16 42 8 51 -18z"/>
<path d="M799 3191 c-64 -65 -17 -161 74 -151 13 1 109 -90 285 -270 l267
-271 378 1 c364 0 380 -1 404 -20 16 -12 41 -20 65 -20 83 0 119 91 59 151
-37 37 -79 38 -119 4 l-30 -25 -364 0 -363 0 -253 253 c-228 228 -252 255
-252 285 0 45 -46 92 -90 92 -22 0 -41 -9 -61 -29z m90 -45 c18 -22 -4 -58
-32 -54 -37 5 -36 68 1 68 11 0 25 -6 31 -14z m1411 -585 c11 -22 -9 -51 -35
-51 -22 0 -39 38 -24 56 16 20 46 17 59 -5z"/>
<path d="M4283 3210 c-25 -10 -55 -63 -51 -89 2 -12 -51 -74 -159 -185 l-163
-167 0 -66 c0 -56 -4 -70 -26 -96 -22 -26 -25 -38 -21 -71 7 -51 36 -76 89
-76 80 0 116 85 63 148 -19 23 -25 41 -25 79 l0 48 153 152 c136 136 155 152
185 151 60 -2 101 58 81 119 -16 51 -72 74 -126 53z m72 -70 c8 -27 -12 -52
-39 -48 -21 3 -32 28 -22 54 8 22 54 18 61 -6z m-370 -602 c-14 -37 -65 -31
-65 8 0 33 30 48 53 25 10 -10 15 -24 12 -33z"/>
<path d="M4373 2838 c-27 -13 -54 -67 -47 -94 3 -13 -6 -30 -30 -53 l-36 -35
0 -173 0 -173 -172 0 -173 0 -152 -151 -153 -152 0 -427 c0 -406 -1 -428 -19
-444 -42 -38 -27 -127 26 -147 95 -36 171 73 103 146 -19 21 -20 36 -20 436
l0 414 123 123 122 122 198 0 197 0 0 198 c0 195 0 199 23 220 15 14 36 22 59
22 28 0 42 7 62 31 30 35 32 58 11 100 -23 44 -75 60 -122 37z m72 -77 c0 -34
-30 -51 -51 -29 -25 24 -10 60 24 56 21 -2 27 -8 27 -27z m-765 -1666 c20 -25
8 -50 -25 -50 -21 0 -31 5 -33 18 -4 21 14 47 33 47 7 0 18 -7 25 -15z"/>
<path d="M638 2790 c-26 -27 -30 -36 -25 -67 4 -20 15 -46 27 -58 18 -19 20
-34 20 -171 l0 -149 130 -130 c75 -75 128 -136 125 -143 -7 -20 21 -79 43 -91
67 -36 150 17 138 88 -7 46 -33 70 -82 78 -33 5 -56 22 -156 122 l-118 116 0
132 c0 120 2 133 19 142 31 17 43 67 27 106 -27 63 -98 75 -148 25z m90 -32
c30 -30 -11 -85 -44 -57 -25 21 -11 69 21 69 6 0 16 -5 23 -12z m309 -684 c8
-22 -10 -49 -32 -49 -10 0 -22 7 -28 16 -15 24 -1 49 28 49 15 0 28 -7 32 -16z"/>
<path d="M987 2550 c-34 -27 -43 -70 -23 -109 19 -36 44 -51 83 -51 24 0 88
-60 411 -383 348 -348 382 -385 382 -415 0 -47 38 -82 87 -82 119 1 125 161 7
177 -39 5 -65 29 -420 384 -356 356 -378 381 -380 415 -2 72 -89 110 -147 64z
m83 -45 c20 -25 8 -50 -25 -50 -21 0 -31 5 -33 18 -4 21 14 47 33 47 7 0 18
-7 25 -15z m888 -906 c4 -31 -19 -44 -49 -29 -20 11 -23 19 -13 45 4 10 16 15
33 13 20 -2 27 -9 29 -29z"/>
<path d="M1655 2335 c-19 -18 -25 -35 -25 -65 0 -82 84 -119 148 -65 26 22 40
25 101 25 l71 0 0 -78 c0 -65 -3 -80 -20 -94 -46 -40 -32 -120 27 -144 93 -39
169 72 99 145 -25 26 -26 32 -26 139 l0 112 -111 0 c-104 0 -113 2 -141 25
-39 33 -90 34 -123 0z m90 -65 c0 -19 -6 -26 -24 -28 -30 -5 -45 10 -36 38 10
32 60 24 60 -10z m279 -262 c15 -24 -13 -53 -43 -43 -23 7 -28 34 -9 53 16 16
38 12 52 -10z"/>
<path d="M2497 2349 c-11 -6 -25 -26 -33 -44 -16 -39 -3 -89 27 -106 18 -9 19
-30 19 -557 l0 -547 -217 -217 -218 -218 194 0 193 0 31 -26 c55 -46 131 -16
143 57 9 51 -33 99 -86 99 -22 0 -47 -8 -63 -20 -21 -17 -40 -20 -113 -20
l-89 0 153 153 152 152 0 564 0 565 22 23 c34 36 31 98 -5 129 -30 26 -79 31
-110 13z m81 -75 c4 -30 -21 -48 -47 -34 -21 11 -28 40 -14 54 15 15 58 1 61
-20z m-5 -1555 c15 -24 1 -49 -27 -49 -29 0 -44 33 -25 56 15 18 38 15 52 -7z"/>
<path d="M2209 2241 c-38 -39 -40 -92 -4 -125 l25 -23 0 -454 0 -454 -118
-118 c-94 -94 -123 -117 -145 -117 -41 0 -67 -17 -83 -56 -12 -29 -12 -39 0
-68 38 -90 160 -68 173 30 5 37 19 55 129 165 l124 124 0 474 0 474 25 23 c54
50 11 154 -65 154 -22 0 -41 -9 -61 -29z m90 -48 c12 -23 -4 -53 -29 -53 -25
0 -41 29 -29 52 12 23 45 23 58 1z m-311 -1302 c8 -4 12 -19 10 -32 -2 -19 -9
-24 -33 -24 -33 0 -45 25 -25 50 14 17 29 19 48 6z"/>
<path d="M4237 2060 c-21 -17 -40 -20 -128 -20 l-104 0 -62 -66 -63 -65 0
-203 0 -202 35 -34 c28 -27 35 -42 35 -71 0 -52 48 -94 99 -85 60 9 94 70 71
127 -15 35 -39 50 -83 51 -18 0 -42 10 -54 21 -22 20 -23 27 -23 192 l0 171
38 37 38 37 88 0 c80 0 91 -2 119 -26 55 -46 131 -16 143 57 9 51 -33 99 -86
99 -22 0 -47 -8 -63 -20z m88 -65 c0 -25 -4 -30 -24 -30 -32 0 -49 28 -31 50
7 9 23 15 34 13 16 -2 21 -10 21 -33z m-260 -590 c0 -25 -4 -30 -24 -30 -32 0
-49 28 -31 50 7 9 23 15 34 13 16 -2 21 -10 21 -33z"/>
<path d="M1278 1825 c-80 -45 -55 -165 36 -170 36 -2 56 -20 282 -246 l244
-244 -62 -62 c-34 -35 -67 -62 -73 -62 -58 7 -105 -33 -105 -88 0 -46 46 -93
90 -93 44 0 90 47 90 92 0 29 12 46 90 123 l90 90 -275 275 c-245 245 -275
279 -275 307 0 66 -75 110 -132 78z m72 -60 c20 -24 3 -57 -28 -53 -27 3 -39
26 -28 54 7 18 40 18 56 -1z m370 -796 c9 -15 8 -24 -1 -35 -27 -33 -78 0 -58
38 13 24 46 23 59 -3z"/>
<path d="M886 1709 c-50 -59 -20 -134 59 -146 35 -5 58 -23 191 -155 108 -107
150 -155 147 -168 -6 -23 22 -76 46 -90 47 -25 102 -7 127 41 30 59 -13 129
-80 129 -27 0 -52 21 -184 153 -134 134 -152 156 -152 185 0 79 -102 113 -154
51z m94 -34 c20 -25 8 -50 -25 -50 -21 0 -31 5 -33 18 -4 21 14 47 33 47 7 0
18 -7 25 -15z m429 -439 c5 -27 -26 -48 -50 -35 -19 10 -25 39 -12 53 14 14
58 1 62 -18z"/>
<path d="M2780 1112 c0 -209 -4 -332 -10 -332 -5 0 -17 -14 -26 -31 -30 -58 0
-123 61 -135 61 -11 104 27 105 92 0 31 -6 46 -25 64 l-25 23 0 224 c0 123 3
223 8 223 4 0 85 -78 180 -173 153 -154 172 -176 172 -205 0 -47 46 -92 93
-92 48 0 87 40 87 89 -1 55 -38 91 -97 91 -23 0 -70 42 -275 247 l-248 248 0
-333z m554 -228 c9 -8 16 -18 16 -22 -1 -39 -63 -42 -68 -3 -6 37 26 52 52 25z
m-483 -160 c17 -21 0 -49 -32 -49 -18 0 -25 6 -27 24 -6 38 34 55 59 25z"/>
</g>
</svg>
